# xmcd
#
# Track frame offsets:
#	150
#	21744
#	42397
#	60623
#	93121
#	115682
#	136310
#	160425
#	180142
#	204181
#	227017
#	255405
#	271382
#	287848
#	308687
#	327491
#
# Disc length: 4608 seconds
#
# Revision: 0
# Processed by: cddbd v1.5.1PL0 Copyright (c) Steve Scherf et al.
# Submitted via: audiograbber 1.83.01
#
DISCID=d911fe10
DTITLE=Eric Clapton - 2005-Back Home
DYEAR=2005
DGENRE=Blues
TTITLE0=So Tired
TTITLE1=Say What You Will
TTITLE2=I'm Going Left
TTITLE3=Love Don't Love Nobody
TTITLE4=Revolution
TTITLE5=Love Comes To Everyone
TTITLE6=Lost And Found
TTITLE7=Piece Of My Heart
TTITLE8=One Day
TTITLE9=One Track Mind
TTITLE10=Run Home To Me
TTITLE11=Back Home
TTITLE12=Wonderful Tonight (Bonus)
TTITLE13=Tears In Neaven (Bonus)
TTITLE14=Cireus (Bonus)
TTITLE15=Blue Moon (Bonus)
EXTD=
EXTT0=
EXTT1=
EXTT2=
EXTT3=
EXTT4=
EXTT5=
EXTT6=
EXTT7=
EXTT8=
EXTT9=
EXTT10=
EXTT11=
EXTT12=
EXTT13=
EXTT14=
EXTT15=
PLAYORDER=
